<?xml version="1.0" encoding="UTF-8" standalone="no"?>
<!-- Created with Inkscape (http://www.inkscape.org/) -->

<svg
   width="210mm"
   height="297mm"
   viewBox="0 0 210 297"
   version="1.1"
   id="svg5"
   inkscape:version="1.2.1 (9c6d41e410, 2022-07-14)"
   sodipodi:docname="drawing.svg"
   xmlns:inkscape="http://www.inkscape.org/namespaces/inkscape"
   xmlns:sodipodi="http://sodipodi.sourceforge.net/DTD/sodipodi-0.dtd"
   xmlns="http://www.w3.org/2000/svg"
   xmlns:svg="http://www.w3.org/2000/svg">
  <sodipodi:namedview
     id="namedview7"
     pagecolor="#ffffff"
     bordercolor="#000000"
     borderopacity="0.25"
     inkscape:showpageshadow="2"
     inkscape:pageopacity="0.0"
     inkscape:pagecheckerboard="0"
     inkscape:deskcolor="#d1d1d1"
     inkscape:document-units="mm"
     showgrid="false"
     inkscape:zoom="0.52221046"
     inkscape:cx="322.66684"
     inkscape:cy="515.11799"
     inkscape:window-width="1920"
     inkscape:window-height="1009"
     inkscape:window-x="-8"
     inkscape:window-y="-8"
     inkscape:window-maximized="1"
     inkscape:current-layer="layer1" />
  <defs
     id="defs2">
    <inkscape:path-effect
       effect="powerstroke"
       id="path-effect2373"
       is_visible="true"
       lpeversion="1"
       offset_points="0.98985977,7.599905"
       not_jump="true"
       sort_points="true"
       interpolator_type="CentripetalCatmullRom"
       interpolator_beta="0.75"
       start_linecap_type="round"
       linejoin_type="spiro"
       miter_limit="4"
       scale_width="1"
       end_linecap_type="round" />
    <inkscape:path-effect
       effect="simplify"
       id="path-effect2371"
       is_visible="true"
       lpeversion="1"
       steps="1"
       threshold="0.0047745358"
       smooth_angles="0"
       helper_size="0"
       simplify_individual_paths="false"
       simplify_just_coalesce="false"
       step="1" />
    <inkscape:path-effect
       effect="powerstroke"
       id="path-effect2366"
       is_visible="true"
       lpeversion="1"
       offset_points="1.5597281,7.599905"
       not_jump="true"
       sort_points="true"
       interpolator_type="CentripetalCatmullRom"
       interpolator_beta="0.75"
       start_linecap_type="round"
       linejoin_type="spiro"
       miter_limit="4"
       scale_width="1"
       end_linecap_type="round" />
    <inkscape:path-effect
       effect="simplify"
       id="path-effect2364"
       is_visible="true"
       lpeversion="1"
       steps="1"
       threshold="0.0047745358"
       smooth_angles="0"
       helper_size="0"
       simplify_individual_paths="false"
       simplify_just_coalesce="false"
       step="1" />
    <inkscape:path-effect
       effect="powerstroke"
       id="path-effect2296"
       is_visible="true"
       lpeversion="1"
       offset_points="2.3769854,7.599905"
       not_jump="true"
       sort_points="true"
       interpolator_type="CentripetalCatmullRom"
       interpolator_beta="0.75"
       start_linecap_type="round"
       linejoin_type="spiro"
       miter_limit="4"
       scale_width="1"
       end_linecap_type="round" />
    <inkscape:path-effect
       effect="simplify"
       id="path-effect2294"
       is_visible="true"
       lpeversion="1"
       steps="1"
       threshold="0.0047745358"
       smooth_angles="0"
       helper_size="0"
       simplify_individual_paths="false"
       simplify_just_coalesce="false"
       step="1" />
    <inkscape:perspective
       sodipodi:type="inkscape:persp3d"
       inkscape:vp_x="0 : 148.5 : 1"
       inkscape:vp_y="0 : 1000 : 0"
       inkscape:vp_z="210 : 148.5 : 1"
       inkscape:persp3d-origin="105 : 99 : 1"
       id="perspective2126" />
    <inkscape:path-effect
       effect="powerstroke"
       id="path-effect2064"
       is_visible="true"
       lpeversion="1"
       offset_points="1.5468241,5.3739444"
       not_jump="true"
       sort_points="true"
       interpolator_type="CentripetalCatmullRom"
       interpolator_beta="0.75"
       start_linecap_type="round"
       linejoin_type="spiro"
       miter_limit="4"
       scale_width="1"
       end_linecap_type="round" />
    <inkscape:path-effect
       effect="simplify"
       id="path-effect2062"
       is_visible="true"
       lpeversion="1"
       steps="1"
       threshold="0.0047745358"
       smooth_angles="0"
       helper_size="0"
       simplify_individual_paths="false"
       simplify_just_coalesce="false"
       step="1" />
    <inkscape:path-effect
       effect="powerstroke"
       id="path-effect2057"
       is_visible="true"
       lpeversion="1"
       offset_points="1.4562887,5.3739444"
       not_jump="true"
       sort_points="true"
       interpolator_type="CentripetalCatmullRom"
       interpolator_beta="0.75"
       start_linecap_type="round"
       linejoin_type="spiro"
       miter_limit="4"
       scale_width="1"
       end_linecap_type="round" />
    <inkscape:path-effect
       effect="simplify"
       id="path-effect2055"
       is_visible="true"
       lpeversion="1"
       steps="1"
       threshold="0.0047745358"
       smooth_angles="0"
       helper_size="0"
       simplify_individual_paths="false"
       simplify_just_coalesce="false"
       step="1" />
    <inkscape:path-effect
       effect="powerstroke"
       id="path-effect344"
       is_visible="true"
       lpeversion="1"
       offset_points="1.473567,5.3739444"
       not_jump="true"
       sort_points="true"
       interpolator_type="CentripetalCatmullRom"
       interpolator_beta="0.75"
       start_linecap_type="round"
       linejoin_type="spiro"
       miter_limit="4"
       scale_width="1"
       end_linecap_type="round" />
    <inkscape:path-effect
       effect="simplify"
       id="path-effect342"
       is_visible="true"
       lpeversion="1"
       steps="1"
       threshold="0.0047745358"
       smooth_angles="0"
       helper_size="0"
       simplify_individual_paths="false"
       simplify_just_coalesce="false"
       step="1" />
    <inkscape:path-effect
       effect="powerstroke"
       id="path-effect211"
       is_visible="true"
       lpeversion="1"
       offset_points="1.5542424,5.3739444"
       not_jump="true"
       sort_points="true"
       interpolator_type="CentripetalCatmullRom"
       interpolator_beta="0.75"
       start_linecap_type="round"
       linejoin_type="spiro"
       miter_limit="4"
       scale_width="1"
       end_linecap_type="round" />
    <inkscape:path-effect
       effect="simplify"
       id="path-effect209"
       is_visible="true"
       lpeversion="1"
       steps="1"
       threshold="0.0047745358"
       smooth_angles="0"
       helper_size="0"
       simplify_individual_paths="false"
       simplify_just_coalesce="false"
       step="1" />
    <inkscape:path-effect
       effect="powerstroke"
       id="path-effect141"
       is_visible="true"
       lpeversion="1"
       offset_points="1.9329901,5.3739444"
       not_jump="true"
       sort_points="true"
       interpolator_type="CentripetalCatmullRom"
       interpolator_beta="0.75"
       start_linecap_type="round"
       linejoin_type="spiro"
       miter_limit="4"
       scale_width="1"
       end_linecap_type="round" />
    <inkscape:path-effect
       effect="simplify"
       id="path-effect139"
       is_visible="true"
       lpeversion="1"
       steps="1"
       threshold="0.0047745358"
       smooth_angles="0"
       helper_size="0"
       simplify_individual_paths="false"
       simplify_just_coalesce="false"
       step="1" />
    <inkscape:path-effect
       effect="powerstroke"
       id="path-effect134"
       is_visible="true"
       lpeversion="1"
       offset_points="3.8048432,5.3739444"
       not_jump="true"
       sort_points="true"
       interpolator_type="CentripetalCatmullRom"
       interpolator_beta="0.75"
       start_linecap_type="round"
       linejoin_type="spiro"
       miter_limit="4"
       scale_width="1"
       end_linecap_type="round" />
    <inkscape:path-effect
       effect="simplify"
       id="path-effect132"
       is_visible="true"
       lpeversion="1"
       steps="1"
       threshold="0.0047745358"
       smooth_angles="0"
       helper_size="0"
       simplify_individual_paths="false"
       simplify_just_coalesce="false"
       step="1" />
    <inkscape:path-effect
       effect="powerstroke"
       id="path-effect127"
       is_visible="true"
       lpeversion="1"
       offset_points="1.9360548,5.3739444"
       not_jump="true"
       sort_points="true"
       interpolator_type="CentripetalCatmullRom"
       interpolator_beta="0.75"
       start_linecap_type="round"
       linejoin_type="spiro"
       miter_limit="4"
       scale_width="1"
       end_linecap_type="round" />
    <inkscape:path-effect
       effect="simplify"
       id="path-effect125"
       is_visible="true"
       lpeversion="1"
       steps="1"
       threshold="0.0047745358"
       smooth_angles="0"
       helper_size="0"
       simplify_individual_paths="false"
       simplify_just_coalesce="false"
       step="1" />
  </defs>
  <g
     inkscape:label="Layer 1"
     inkscape:groupmode="layer"
     id="layer1">
    <g
       sodipodi:type="inkscape:box3d"
       id="g2128"
       style="display:inline;fill:#ffff00;fill-opacity:1;stroke:#000000"
       inkscape:perspectiveID="#perspective2126"
       inkscape:corner0="1.3549935 : 0.15146479 : 0 : 1"
       inkscape:corner7="0.23356805 : -0.057810189 : 0.25 : 1">
      <g
         id="g1264">
        <path
           sodipodi:type="inkscape:box3dside"
           id="path2140"
           style="fill:#e9e9ff;fill-rule:evenodd;stroke:none;stroke-linejoin:round"
           inkscape:box3dsidetype="11"
           d="M 106.16298,220.8325 60.460805,189.69404 V 109.35795 L 106.16298,79.770574 Z"
           points="60.460805,189.69404 60.460805,109.35795 106.16298,79.770574 106.16298,220.8325 " />
        <path
           style="fill:none;stroke:none;stroke-width:1"
           d="m 70.920369,102.74407 -8.924108,8.92411 c -1.870886,1.87089 -1.870886,5.61266 0,3.74177 L 81.532177,95.874037 M 92.143986,89.004 61.996261,119.15173 c -1.870886,1.87088 -1.870886,5.61265 0,3.74177 L 101.35263,83.537129 c 1.87089,-1.870886 5.14578,-1.404007 3.27489,0.466879 L 61.996261,126.63527 c -1.870886,1.87089 -1.870886,5.61266 0,3.74177 L 104.62752,87.745781 c 1.87089,-1.870886 1.87089,1.870886 0,3.741773 L 61.996261,134.11882 c -1.870886,1.87088 -1.870886,5.61265 0,3.74177 L 104.62752,95.229327 c 1.87089,-1.870886 1.87089,1.870886 0,3.741773 l -42.631259,42.63126 c -1.870886,1.87089 -1.870886,5.61266 0,3.74177 l 42.631259,-42.63126 c 1.87089,-1.87088 1.87089,1.87089 0,3.74178 l -42.631259,42.63126 c -1.870886,1.87088 -1.870886,5.61266 0,3.74177 l 42.631259,-42.63126 c 1.87089,-1.87089 1.87089,1.87088 0,3.74177 l -42.631259,42.63126 c -1.870886,1.87089 -1.870886,5.61266 0,3.74178 l 42.631259,-42.63127 c 1.87089,-1.87088 1.87089,1.87089 0,3.74178 L 61.996261,164.053 c -1.870886,1.87089 -1.870886,5.61266 0,3.74177 l 42.631259,-42.63126 c 1.87089,-1.87089 1.87089,1.87089 0,3.74177 l -42.631259,42.63127 c -1.870886,1.87088 -1.870886,5.61265 0,3.74177 l 42.631259,-42.63126 c 1.87089,-1.87089 1.87089,1.87088 0,3.74177 l -42.631259,42.63126 c -1.870886,1.87089 -1.870886,5.61266 0,3.74177 L 104.62752,140.1306 c 1.87089,-1.87088 1.87089,1.87089 0,3.74178 l -42.631259,42.63126 c -1.870886,1.87088 -0.666795,4.40857 1.204092,2.53768 l 41.427167,-41.42717 c 1.87089,-1.87089 1.87089,1.87088 0,3.74177 l -39.201689,39.20169 c -1.870886,1.87089 0.354592,3.38718 2.225478,1.5163 l 36.976211,-36.97622 c 1.87089,-1.87088 1.87089,1.87089 0,3.74178 L 69.876787,193.5902 c -1.870886,1.87089 0.354592,3.38718 2.225478,1.5163 l 32.525255,-32.52526 c 1.87089,-1.87088 1.87089,1.87089 0,3.74177 l -30.299777,30.29978 c -1.870886,1.87089 0.354592,3.38718 2.225478,1.5163 l 28.074299,-28.0743 c 1.87089,-1.87089 1.87089,1.87088 0,3.74177 l -25.848821,25.84882 c -1.870886,1.87089 0.354592,3.38718 2.225478,1.5163 l 23.623343,-23.62335 c 1.87089,-1.87088 1.87089,1.87089 0,3.74178 l -21.397865,21.39786 c -1.870886,1.87089 0.354592,3.38718 2.225478,1.5163 l 19.172387,-19.17239 c 1.87089,-1.87089 1.87089,1.87089 0,3.74177 l -16.946909,16.94691 c -1.870886,1.87089 0.354592,3.38718 2.225478,1.5163 l 14.721431,-14.72143 c 1.87089,-1.87089 1.87089,1.87088 0,3.74177 l -12.495953,12.49595 c -1.870886,1.87089 0.354592,3.38718 2.225478,1.5163 l 10.270475,-10.27048 c 1.87089,-1.87088 1.87089,1.87089 0,3.74178 l -8.044997,8.04499 c -1.870886,1.87089 0.354592,3.38718 2.225478,1.5163 l 5.819519,-5.81952 c 1.87088,-1.87089 1.87088,1.87089 0,3.74177 l -3.59404,3.59404 c -1.870887,1.87089 0.35459,3.38718 2.22548,1.5163 l 1.79702,-1.79702 c 1.29961,-1.29961 1.29961,2.44216 0,3.74177 l -0.97471,0.97471"
           id="path1262" />
      </g>
      <g
         id="g1269">
        <path
           sodipodi:type="inkscape:box3dside"
           id="path2130"
           style="fill:#353564;fill-rule:evenodd;stroke:none;stroke-linejoin:round"
           inkscape:box3dsidetype="6"
           d="m 60.460805,189.69404 v -80.33609 l -15.874694,-4.15521 v 88.86435 z"
           points="60.460805,109.35795 44.586111,105.20274 44.586111,194.06709 60.460805,189.69404 " />
        <path
           style="fill:none;stroke:none;stroke-width:1"
           d="m 44.718403,108.57573 1.268718,-1.26872 c 1.691624,-1.69163 4.657165,-0.91539 2.965541,0.77623 l -2.831094,2.83109 c -1.870886,1.87089 -1.870886,5.61266 0,3.74178 l 5.662188,-5.66219 c 1.870886,-1.87089 4.836427,-1.09465 2.965541,0.77623 l -8.627729,8.62773 c -1.870886,1.87089 -1.870886,5.61266 0,3.74177 l 11.59327,-11.59327 c 1.870886,-1.87088 3.081397,0.66038 1.210511,2.53127 l -12.803781,12.80378 c -1.870886,1.87088 -1.870886,5.61266 0,3.74177 l 12.803781,-12.80378 c 1.870886,-1.87089 1.870886,1.87088 0,3.74177 l -12.803781,12.80378 c -1.870886,1.87089 -1.870886,5.61266 0,3.74178 l 12.803781,-12.80379 c 1.870886,-1.87088 1.870886,1.87089 0,3.74178 l -12.803781,12.80378 c -1.870886,1.87088 -1.870886,5.61266 0,3.74177 l 12.803781,-12.80378 c 1.870886,-1.87089 1.870886,1.87089 0,3.74177 l -12.803781,12.80378 c -1.870886,1.87089 -1.870886,5.61266 0,3.74178 l 12.803781,-12.80378 c 1.870886,-1.87089 1.870886,1.87088 0,3.74177 l -12.803781,12.80378 c -1.870886,1.87089 -1.870886,5.61266 0,3.74177 L 58.925349,146.7536 c 1.870886,-1.87088 1.870886,1.87089 0,3.74178 l -12.803781,12.80378 c -1.870886,1.87088 -1.870886,5.61266 0,3.74177 l 12.803781,-12.80378 c 1.870886,-1.87089 1.870886,1.87088 0,3.74177 L 46.121568,170.7827 c -1.870886,1.87089 -1.870886,5.61266 0,3.74178 l 12.803781,-12.80379 c 1.870886,-1.87088 1.870886,1.87089 0,3.74178 l -12.803781,12.80378 c -1.870886,1.87088 -1.870886,5.61266 0,3.74177 l 12.803781,-12.80378 c 1.870886,-1.87089 1.870886,1.87089 0,3.74177 l -12.803781,12.80378 c -1.870886,1.87089 -1.870886,5.61266 0,3.74178 l 12.803781,-12.80378 c 1.870886,-1.87089 1.870886,1.87088 0,3.74177 l -11.778178,11.77818 c -1.870886,1.87088 3.293549,0.44822 5.164436,-1.42267 l 6.613742,-6.61374 c 1.870886,-1.87088 1.870886,1.87089 0,3.74178 l -2.852471,2.85247"
           id="path1267" />
      </g>
      <g
         id="g1274">
        <path
           sodipodi:type="inkscape:box3dside"
           id="path2138"
           style="fill:#afafde;fill-rule:evenodd;stroke:none;stroke-linejoin:round"
           inkscape:box3dsidetype="13"
           d="m 106.16298,220.8325 -45.702175,-31.13846 -15.874694,4.37305 40.532827,41.42462 z"
           points="60.460805,189.69404 44.586111,194.06709 85.118938,235.49171 106.16298,220.8325 " />
        <path
           style="fill:none;stroke:none;stroke-width:1"
           d="m 47.894015,193.29307 -0.980599,0.9806 c -1.307465,1.30747 0.543064,3.19871 1.850529,1.89124 l 2.891341,-2.89134 c 1.870886,-1.87088 7.035322,-3.29355 5.164436,-1.42266 l -5.782681,5.78268 c -1.870886,1.87089 -0.02036,3.76213 1.850529,1.89124 l 7.41758,-7.41758 c 1.870886,-1.87088 4.096365,-0.35459 2.225478,1.5163 l -7.792529,7.79253 c -1.870886,1.87089 -0.02036,3.76213 1.850529,1.89124 l 8.167479,-8.16748 c 1.870886,-1.87088 4.096365,-0.35459 2.225478,1.5163 l -8.542428,8.54243 c -1.870886,1.87088 -0.02036,3.76213 1.850529,1.89124 l 8.917377,-8.91738 c 1.870886,-1.87088 4.096365,-0.35459 2.225478,1.5163 l -9.292326,9.29233 c -1.870886,1.87088 -0.02036,3.76213 1.850529,1.89124 l 9.667275,-9.66728 c 1.870886,-1.87088 4.096365,-0.35459 2.225478,1.5163 l -10.042225,10.04222 c -1.870886,1.87089 -0.02036,3.76213 1.850529,1.89125 l 10.417174,-10.41718 c 1.870886,-1.87088 4.096365,-0.35459 2.225478,1.5163 L 69.54233,216.54603 c -1.870886,1.87089 -0.02036,3.76213 1.850529,1.89125 L 82.559931,207.2702 c 1.870886,-1.87088 4.096365,-0.35459 2.225478,1.5163 l -11.542022,11.54202 c -1.870886,1.87089 -0.02036,3.76213 1.850529,1.89125 l 11.916971,-11.91698 c 1.870886,-1.87088 4.096365,-0.35459 2.225478,1.5163 l -12.29192,12.29192 c -1.870886,1.87089 -0.02036,3.76213 1.850529,1.89124 l 12.666869,-12.66687 c 1.870886,-1.87088 4.096365,-0.35459 2.225478,1.5163 L 80.645503,227.8935 c -1.870886,1.87088 -0.02036,3.76213 1.850529,1.89124 L 95.9128,216.36797 c 1.870886,-1.87088 4.09636,-0.35459 2.225478,1.5163 l -13.791717,13.79172 c -1.870886,1.87088 -0.02036,3.76213 1.850529,1.89124 l 14.16667,-14.16667 c 1.87088,-1.87088 4.09636,-0.35459 2.22547,1.5163 l -7.395692,7.39569"
           id="path1272" />
      </g>
      <g
         id="g1279">
        <path
           sodipodi:type="inkscape:box3dside"
           id="path2132"
           style="fill:#4d4d9f;fill-rule:evenodd;stroke:none;stroke-linejoin:round"
           inkscape:box3dsidetype="5"
           d="M 106.16298,79.770574 60.460805,109.35795 44.586111,105.20274 85.118938,65.841583 Z"
           points="60.460805,109.35795 44.586111,105.20274 85.118938,65.841583 106.16298,79.770574 " />
        <path
           style="display:inline;fill:none;stroke:none;stroke-width:1"
           d="M 73.771487,77.045421 46.912442,103.90447 c -1.870886,1.87088 1.094654,2.64711 2.965541,0.77623 L 85.785404,68.773277 c 1.870886,-1.870886 4.122393,-0.38062 2.251507,1.490266 L 52.843524,105.45693 c -1.870886,1.87089 1.094654,2.64712 2.965541,0.77623 L 90.288418,71.753809 c 1.870886,-1.870886 4.122393,-0.38062 2.251507,1.490266 L 58.774606,107.00939 c -1.870886,1.87089 1.094654,2.64712 2.965541,0.77624 L 94.791432,74.734341 c 1.870886,-1.870886 4.122393,-0.38062 2.251507,1.490266 L 70.68865,102.5789 M 81.300459,95.70886 99.294446,77.714873 c 1.870884,-1.870886 4.122394,-0.38062 2.251504,1.490266 l -9.633683,9.633686 m 10.611813,-6.870036 2.67654,-2.676549"
           id="path1277" />
      </g>
      <g
         id="g1284">
        <path
           sodipodi:type="inkscape:box3dside"
           id="path2136"
           style="fill:#d7d7ff;fill-rule:evenodd;stroke:none;stroke-linejoin:round"
           inkscape:box3dsidetype="14"
           d="M 106.16298,220.8325 V 79.770574 L 85.118938,65.841583 V 235.49171 Z"
           points="106.16298,79.770574 85.118938,65.841583 85.118938,235.49171 106.16298,220.8325 " />
        <path
           style="fill:none;stroke:none;stroke-width:1"
           d="m 85.25123,70.110418 1.210251,-1.210251 c 1.613668,-1.613668 3.865175,-0.123402 2.251507,1.490266 l -2.058593,2.058593 c -1.870886,1.870886 -1.870886,5.612659 0,3.741773 l 4.117186,-4.117186 c 1.870886,-1.870886 4.122393,-0.38062 2.251507,1.490266 l -6.368693,6.368693 c -1.870886,1.870886 -1.870886,5.612659 0,3.741773 l 8.6202,-8.6202 c 1.870886,-1.870886 4.122393,-0.38062 2.251507,1.490266 L 86.654395,87.416118 c -1.870886,1.870886 -1.870886,5.612659 0,3.741773 L 99.777609,78.034677 C 101.6485,76.163791 103.9,77.654057 102.02912,79.524943 L 86.654395,94.899664 c -1.870886,1.870886 -1.870886,5.612656 0,3.741773 L 104.28062,81.015209 c 1.87089,-1.870886 2.21779,1.523986 0.3469,3.394872 L 86.654395,102.38321 c -1.870886,1.87089 -1.870886,5.61266 0,3.74177 L 104.62752,88.151854 c 1.87089,-1.870886 1.87089,1.870886 0,3.741773 L 86.654395,109.86676 c -1.870886,1.87088 -1.870886,5.61265 0,3.74177 L 104.62752,95.6354 c 1.87089,-1.870886 1.87089,1.870886 0,3.741773 L 86.654395,117.3503 c -1.870886,1.87089 -1.870886,5.61266 0,3.74177 l 17.973125,-17.97312 c 1.87089,-1.87089 1.87089,1.87088 0,3.74177 l -17.973125,17.97313 c -1.870886,1.87088 -1.870886,5.61266 0,3.74177 l 17.973125,-17.97313 c 1.87089,-1.87088 1.87089,1.87089 0,3.74177 l -17.973125,17.97313 c -1.870886,1.87089 -1.870886,5.61266 0,3.74178 l 17.973125,-17.97313 c 1.87089,-1.87089 1.87089,1.87088 0,3.74177 l -17.973125,17.97313 c -1.870886,1.87089 -1.870886,5.61266 0,3.74177 l 17.973125,-17.97313 c 1.87089,-1.87088 1.87089,1.87089 0,3.74178 l -17.973125,17.97313 c -1.870886,1.87088 -1.870886,5.61265 0,3.74177 l 17.973125,-17.97313 c 1.87089,-1.87089 1.87089,1.87089 0,3.74177 l -17.973125,17.97313 c -1.870886,1.87089 -1.870886,5.61266 0,3.74177 l 17.973125,-17.97312 c 1.87089,-1.87089 1.87089,1.87088 0,3.74177 l -17.973125,17.97313 c -1.870886,1.87088 -1.870886,5.61266 0,3.74177 l 17.973125,-17.97313 c 1.87089,-1.87088 1.87089,1.87089 0,3.74177 l -17.973125,17.97313 c -1.870886,1.87089 -1.870886,5.61266 0,3.74178 l 17.973125,-17.97313 c 1.87089,-1.87089 1.87089,1.87088 0,3.74177 l -17.973125,17.97313 c -1.870886,1.87089 -1.870886,5.61266 0,3.74177 l 17.973125,-17.97313 c 1.87089,-1.87088 1.87089,1.87089 0,3.74178 l -17.973125,17.97313 c -1.870886,1.87088 -1.870886,5.61265 0,3.74177 l 17.973125,-17.97313 c 1.87089,-1.87089 1.87089,1.87089 0,3.74177 l -17.973125,17.97313 c -1.870886,1.87089 -1.870886,5.61266 0,3.74177 l 17.973125,-17.97312 c 1.87089,-1.87089 1.87089,1.87088 0,3.74177 l -17.973125,17.97313 c -1.870886,1.87088 -1.870886,5.61266 0,3.74177 l 17.973125,-17.97313 c 1.87089,-1.87088 1.87089,1.87089 0,3.74177 l -17.973125,17.97313 c -1.870886,1.87089 -1.870886,5.61266 0,3.74178 L 104.62752,192.9215 c 1.87089,-1.87089 1.87089,1.87088 0,3.74177 L 86.654395,214.6364 c -1.870886,1.87089 -1.870886,5.61266 0,3.74177 l 17.973125,-17.97313 c 1.87089,-1.87088 1.87089,1.87089 0,3.74178 l -17.973125,17.97313 c -1.870886,1.87088 -1.870886,5.61265 0,3.74177 l 17.973125,-17.97313 c 1.87089,-1.87089 1.87089,1.87089 0,3.74177 l -17.973125,17.97313 c -1.870886,1.87089 -1.870886,5.61266 0,3.74177 l 17.973125,-17.97312 c 1.87089,-1.87089 1.87089,1.87088 0,3.74177 l -8.658315,8.65832"
           id="path1282" />
      </g>
      <g
         id="g1289">
        <path
           sodipodi:type="inkscape:box3dside"
           id="path2134"
           style="fill:#8686bf;fill-rule:evenodd;stroke:none;stroke-linejoin:round"
           inkscape:box3dsidetype="3"
           d="M 44.586111,105.20274 85.118938,65.841583 V 235.49171 L 44.586111,194.06709 Z"
           points="85.118938,65.841583 85.118938,235.49171 44.586111,194.06709 44.586111,105.20274 " />
        <path
           style="display:inline;fill:none;stroke:none;stroke-width:1"
           d="M 44.718403,107.33204 83.583482,68.466966 c 1.870886,-1.870886 1.870886,1.870886 0,3.741773 L 46.121568,109.67065 c -1.870886,1.87089 -1.870886,5.61266 0,3.74178 L 83.583482,75.950512 c 1.870886,-1.870886 1.870886,1.870886 0,3.741773 L 46.121568,117.1542 c -1.870886,1.87088 -1.870886,5.61266 0,3.74177 L 83.583482,83.434058 c 1.870886,-1.870886 1.870886,1.870886 0,3.741773 L 46.121568,124.63774 c -1.870886,1.87089 -1.870886,5.61266 0,3.74178 L 83.583482,90.917604 c 1.870886,-1.870886 1.870886,1.870886 0,3.741773 L 46.121568,132.12129 c -1.870886,1.87089 -1.870886,5.61266 0,3.74177 L 83.583482,98.40115 c 1.870886,-1.870886 1.870886,1.87089 0,3.74177 l -37.461914,37.46192 c -1.870886,1.87088 -1.870886,5.61266 0,3.74177 L 83.583482,105.8847 c 1.870886,-1.87089 1.870886,1.87088 0,3.74177 l -37.461914,37.46191 c -1.870886,1.87089 -1.870886,5.61266 0,3.74178 l 37.461914,-37.46192 c 1.870886,-1.87088 1.870886,1.87089 0,3.74177 l -37.461914,37.46192 c -1.870886,1.87088 -1.870886,5.61266 0,3.74177 l 37.461914,-37.46191 c 1.870886,-1.87089 1.870886,1.87088 0,3.74177 l -37.461914,37.46191 c -1.870886,1.87089 -1.870886,5.61266 0,3.74178 l 37.461914,-37.46192 c 1.870886,-1.87088 1.870886,1.87089 0,3.74178 l -37.461914,37.46191 c -1.870886,1.87089 -1.870886,5.61266 0,3.74177 l 37.461914,-37.46191 c 1.870886,-1.87089 1.870886,1.87089 0,3.74177 l -37.461914,37.46192 c -1.870886,1.87088 -1.870886,5.61266 0,3.74177 l 37.461914,-37.46191 c 1.870886,-1.87089 1.870886,1.87088 0,3.74177 l -37.461914,37.46191 c -1.870886,1.87089 -1.870886,5.61266 0,3.74178 l 37.461914,-37.46192 c 1.870886,-1.87088 1.870886,1.87089 0,3.74177 l -37.461914,37.46192 c -1.870886,1.87088 -0.327138,4.06891 1.543748,2.19802 l 35.918166,-35.91816 c 1.870886,-1.87089 1.870886,1.87088 0,3.74177 l -34.067637,34.06764 c -1.870886,1.87088 -0.02036,3.76213 1.850529,1.89124 l 32.217108,-32.21711 c 1.870886,-1.87088 1.870886,1.87089 0,3.74178 l -30.366579,30.36658 c -1.870886,1.87088 -0.02036,3.76213 1.850529,1.89124 l 28.51605,-28.51605 c 1.870886,-1.87089 1.870886,1.87089 0,3.74177 L 56.917961,203.6439 c -1.870886,1.87089 -0.02036,3.76213 1.850529,1.89125 l 24.814991,-24.81499 c 1.870886,-1.87089 1.870886,1.87088 0,3.74177 l -22.964462,22.96446 c -1.870886,1.87089 -0.02036,3.76213 1.850529,1.89125 L 83.583481,188.2037 c 1.870886,-1.87088 1.870886,1.87089 0,3.74178 l -19.263404,19.2634 c -1.870886,1.87089 -0.02036,3.76213 1.850529,1.89124 l 17.412875,-17.41287 c 1.870886,-1.87089 1.870886,1.87088 0,3.74177 l -15.562346,15.56235 c -1.870886,1.87088 -0.02036,3.76213 1.850529,1.89124 l 13.711817,-13.71182 c 1.870886,-1.87088 1.870886,1.87089 0,3.74178 l -11.861288,11.86129 c -1.870886,1.87088 -0.02036,3.76213 1.850529,1.89124 l 10.010759,-10.01076 c 1.870886,-1.87089 1.870886,1.87089 0,3.74177 l -8.16023,8.16023 c -1.870886,1.87089 -0.02036,3.76213 1.850529,1.89125 l 6.309701,-6.3097 c 1.870886,-1.87089 1.870886,1.87088 0,3.74177 l -4.459172,4.45917 c -1.870886,1.87089 -0.02036,3.76213 1.850529,1.89125 l 2.608643,-2.60865 c 1.870886,-1.87088 1.870886,1.87089 0,3.74178 l -1.304322,1.30432 c -1.14261,1.14261 0.707919,3.03385 1.850529,1.89124 l 0.856957,-0.85696"
           id="path1287" />
      </g>
    </g>
    <g
       sodipodi:type="inkscape:box3d"
       id="g2142"
       style="display:none;fill:#ffff00;fill-opacity:1;stroke:#000000"
       inkscape:perspectiveID="#perspective2126"
       inkscape:corner0="-0.19047096 : 0.090554901 : 0 : 1"
       inkscape:corner7="-0.29510397 : 0.0081056297 : 0.25 : 1">
      <g
         id="g1295">
        <path
           sodipodi:type="inkscape:box3dside"
           id="path2154"
           style="fill:#e9e9ff;fill-rule:evenodd;stroke:none;stroke-linejoin:round"
           inkscape:box3dsidetype="11"
           d="m 164.93943,105.5059 v 86.34371 l -16.28848,-4.28096 v -77.8169 z"
           points="164.93943,191.84961 148.65095,187.56865 148.65095,109.75175 164.93943,105.5059 " />
        <path
           style="fill:none;stroke:none;stroke-width:1"
           d="m 153.4002,108.6505 -3.21379,3.21379 c -1.87089,1.87088 -1.87089,5.61266 0,3.74177 l 6.87163,-6.87163 c 1.87089,-1.87089 6.93189,-3.19012 5.061,-1.31923 l -11.93263,11.93263 c -1.87089,1.87089 -1.87089,5.61266 0,3.74178 l 13.21756,-13.21757 c 1.87089,-1.87089 1.87089,1.87089 0,3.74177 l -13.21756,13.21757 c -1.87089,1.87089 -1.87089,5.61266 0,3.74177 l 13.21756,-13.21756 c 1.87089,-1.87089 1.87089,1.87088 0,3.74177 l -13.21756,13.21757 c -1.87089,1.87088 -1.87089,5.61265 0,3.74177 l 13.21756,-13.21757 c 1.87089,-1.87088 1.87089,1.87089 0,3.74177 l -13.21756,13.21757 c -1.87089,1.87089 -1.87089,5.61266 0,3.74177 l 13.21756,-13.21756 c 1.87089,-1.87089 1.87089,1.87088 0,3.74177 l -13.21756,13.21757 c -1.87089,1.87088 -1.87089,5.61266 0,3.74177 l 13.21756,-13.21757 c 1.87089,-1.87088 1.87089,1.87089 0,3.74178 l -13.21756,13.21756 c -1.87089,1.87089 -1.87089,5.61266 0,3.74178 l 13.21756,-13.21757 c 1.87089,-1.87089 1.87089,1.87089 0,3.74177 l -13.21756,13.21757 c -1.87089,1.87089 -1.87089,5.61266 0,3.74177 l 13.21756,-13.21756 c 1.87089,-1.87089 1.87089,1.87088 0,3.74177 l -13.21756,13.21757 c -1.87089,1.87088 -1.87089,5.61265 0,3.74177 l 13.21756,-13.21757 c 1.87089,-1.87088 1.87089,1.87089 0,3.74177 l -13.21756,13.21757 c -1.87089,1.87089 -1.87089,5.61266 0,3.74177 l 13.21756,-13.21756 c 1.87089,-1.87089 1.87089,1.87088 0,3.74177 l -12.71371,12.71371 c -1.87089,1.87089 1.09214,2.64964 2.96303,0.77875 l 9.75068,-9.75069 c 1.87089,-1.87088 1.87089,1.87089 0,3.74178 l -6.78766,6.78766 c -1.87088,1.87088 1.09214,2.64963 2.96303,0.77874 l 3.82463,-3.82463 c 1.87089,-1.87089 1.87089,1.87089 0,3.74177 l -1.91231,1.91232 c -0.46994,0.46994 2.49308,1.24869 2.96302,0.77875 l 0.35246,-0.35246"
           id="path1293" />
      </g>
      <g
         id="g1300">
        <path
           sodipodi:type="inkscape:box3dside"
           id="path2144"
           style="fill:#353564;fill-rule:evenodd;stroke:none;stroke-linejoin:round"
           inkscape:box3dsidetype="6"
           d="m 129.70505,199.63389 18.9459,-12.06524 v -77.8169 l -18.9459,-11.966294 z"
           points="148.65095,187.56865 148.65095,109.75175 129.70505,97.785456 129.70505,199.63389 " />
        <path
           style="fill:none;stroke:none;stroke-width:1"
           d="m 129.83734,99.764264 0.53285,-0.532845 c 0.71046,-0.71046 3.00377,0.738003 2.29331,1.448461 l -1.42299,1.42299 c -1.87089,1.87089 -1.87089,5.61266 0,3.74178 l 2.84598,-2.84599 c 1.87088,-1.87088 4.16419,-0.42242 2.29331,1.44847 l -5.13929,5.13929 c -1.87089,1.87088 -1.87089,5.61266 0,3.74177 l 7.4326,-7.4326 c 1.87088,-1.87089 4.1642,-0.42243 2.29331,1.44846 l -9.72591,9.72591 c -1.87089,1.87089 -1.87089,5.61266 0,3.74178 l 12.01922,-12.01923 c 1.87088,-1.87088 4.1642,-0.42242 2.29331,1.44847 l -14.31253,14.31253 c -1.87089,1.87089 -1.87089,5.61266 0,3.74177 l 15.87498,-15.87498 c 1.87089,-1.87089 1.87089,1.87088 0,3.74177 l -15.87498,15.87499 c -1.87089,1.87088 -1.87089,5.61266 0,3.74177 l 15.87498,-15.87499 c 1.87089,-1.87088 1.87089,1.87089 0,3.74178 l -15.87498,15.87498 c -1.87089,1.87089 -1.87089,5.61266 0,3.74178 l 15.87498,-15.87499 c 1.87089,-1.87089 1.87089,1.87088 0,3.74177 l -15.87498,15.87499 c -1.87089,1.87088 -1.87089,5.61266 0,3.74177 l 15.87498,-15.87499 c 1.87089,-1.87088 1.87089,1.87089 0,3.74178 l -15.87498,15.87498 c -1.87089,1.87089 -1.87089,5.61266 0,3.74178 l 15.87498,-15.87499 c 1.87089,-1.87089 1.87089,1.87089 0,3.74177 l -15.87498,15.87499 c -1.87089,1.87089 -1.87089,5.61266 0,3.74177 l 15.87498,-15.87498 c 1.87089,-1.87089 1.87089,1.87088 0,3.74177 l -15.87498,15.87499 c -1.87089,1.87088 -1.87089,5.61266 0,3.74177 l 15.87498,-15.87499 c 1.87089,-1.87088 1.87089,1.87089 0,3.74178 l -15.87498,15.87498 c -1.87089,1.87089 -1.87089,5.61266 0,3.74178 l 15.87498,-15.87499 c 1.87089,-1.87089 1.87089,1.87088 0,3.74177 l -15.87498,15.87499 c -1.87089,1.87088 -1.87089,5.61266 0,3.74177 l 15.87498,-15.87499 c 1.87089,-1.87088 1.87089,1.87089 0,3.74178 l -15.87498,15.87498 c -1.87089,1.87089 -1.87089,5.61266 0,3.74178 l 15.87498,-15.87499 c 1.87089,-1.87089 1.87089,1.87089 0,3.74177 l -13.42509,13.4251 m 14.82826,-11.08649 -4.52529,4.52529"
           id="path1298" />
      </g>
      <g
         id="g1305">
        <path
           sodipodi:type="inkscape:box3dside"
           id="path2152"
           style="fill:#afafde;fill-rule:evenodd;stroke:none;stroke-linejoin:round"
           inkscape:box3dsidetype="13"
           d="m 148.95814,207.22408 15.98129,-15.37447 -16.28848,-4.28096 -18.9459,12.06524 z"
           points="164.93943,191.84961 148.65095,187.56865 129.70505,199.63389 148.95814,207.22408 " />
        <path
           style="fill:none;stroke:none;stroke-width:1"
           d="m 134.27863,196.87815 -1.76459,1.7646 c -1.87089,1.87088 0.81286,2.9289 2.68375,1.05802 l 7.98065,-7.98065 c 1.87089,-1.87089 7.74884,-4.00707 5.87795,-2.13618 l -11.17485,11.17485 c -1.87088,1.87088 0.81287,2.92891 2.68375,1.05802 l 11.45413,-11.45412 c 1.87088,-1.87089 4.83391,-1.09214 2.96302,0.77874 l -11.73339,11.7334 c -1.87089,1.87089 0.81286,2.92891 2.68375,1.05802 l 12.01267,-12.01267 c 1.87089,-1.87089 4.83391,-1.09214 2.96303,0.77875 l -13.69512,13.69511"
           id="path1303" />
      </g>
      <g
         id="g1310">
        <path
           sodipodi:type="inkscape:box3dside"
           id="path2146"
           style="fill:#4d4d9f;fill-rule:evenodd;stroke:none;stroke-linejoin:round"
           inkscape:box3dsidetype="5"
           d="m 148.95814,90.257514 15.98129,15.248386 -16.28848,4.24585 -18.9459,-11.966294 z"
           points="164.93943,105.5059 148.65095,109.75175 129.70505,97.785456 148.95814,90.257514 " />
        <path
           style="fill:none;stroke:none;stroke-width:1"
           d="m 133.7216,96.357032 -1.1672,1.167203 c -1.55627,1.55627 0.73704,3.004735 2.29331,1.448463 l 3.61484,-3.614845 c 1.87089,-1.870886 8.01501,-4.273231 6.14412,-2.402345 l -7.22969,7.229692 c -1.87088,1.87089 0.42243,3.31935 2.29331,1.44846 l 8.85977,-8.859763 c 1.87088,-1.870886 3.78568,-0.04391 1.91479,1.82698 l -8.48125,8.481253 c -1.87088,1.87088 0.42243,3.31934 2.29331,1.44846 l 8.10273,-8.102732 c 1.87089,-1.870886 3.78568,-0.04391 1.91479,1.82698 l -7.72421,7.724212 c -1.87088,1.87089 0.42243,3.31935 2.29331,1.44846 l 7.3457,-7.34569 c 1.87088,-1.870888 3.78568,-0.0439 1.91479,1.82698 l -5.6872,5.6872 c -1.87089,1.87088 3.19012,0.55165 5.061,-1.31923 l 2.8436,-2.8436 c 1.46741,-1.46741 3.3822,0.35957 1.9148,1.82698 l -1.10056,1.10055"
           id="path1308" />
      </g>
      <g
         id="g1315">
        <path
           sodipodi:type="inkscape:box3dside"
           id="path2150"
           style="fill:#d7d7ff;fill-rule:evenodd;stroke:none;stroke-linejoin:round"
           inkscape:box3dsidetype="14"
           d="m 148.95814,207.22408 15.98129,-15.37447 V 105.5059 L 148.95814,90.257514 Z"
           points="164.93943,191.84961 164.93943,105.5059 148.95814,90.257514 148.95814,207.22408 " />
        <path
           style="fill:none;stroke:none;stroke-width:1"
           d="m 149.09043,91.831733 0.32371,-0.323709 c 0.43161,-0.431612 2.34641,1.395368 1.91479,1.82698 l -0.95739,0.957396 c -1.70814,1.708141 -1.70814,5.449914 0,3.741773 l 1.79273,-1.792733 c 1.87089,-1.870886 3.78568,-0.04391 1.91479,1.82698 l -3.58546,3.58547 c -1.87089,1.87088 -1.87089,5.61266 0,3.74177 l 5.50026,-5.50026 c 1.87088,-1.870886 3.78568,-0.04391 1.91479,1.82698 l -7.41505,7.41505 c -1.87089,1.87089 -1.87089,5.61266 0,3.74178 l 9.32984,-9.32985 c 1.87089,-1.87089 3.78568,-0.0439 1.9148,1.82698 l -11.24464,11.24464 c -1.87089,1.87088 -1.87089,5.61266 0,3.74177 l 12.91038,-12.91038 c 1.87088,-1.87088 1.87088,1.87089 0,3.74178 l -12.91038,12.91037 c -1.87089,1.87089 -1.87089,5.61266 0,3.74178 l 12.91038,-12.91038 c 1.87088,-1.87089 1.87088,1.87089 0,3.74177 l -12.91038,12.91038 c -1.87089,1.87089 -1.87089,5.61266 0,3.74177 l 12.91038,-12.91037 c 1.87088,-1.87089 1.87088,1.87088 0,3.74177 l -12.91038,12.91038 c -1.87089,1.87088 -1.87089,5.61265 0,3.74177 l 12.91038,-12.91038 c 1.87088,-1.87088 1.87088,1.87089 0,3.74177 l -12.91038,12.91038 c -1.87089,1.87089 -1.87089,5.61266 0,3.74177 l 12.91038,-12.91037 c 1.87088,-1.87089 1.87088,1.87088 0,3.74177 l -12.91038,12.91038 c -1.87089,1.87088 -1.87089,5.61266 0,3.74177 l 12.91038,-12.91038 c 1.87088,-1.87088 1.87088,1.87089 0,3.74178 l -12.91038,12.91037 c -1.87089,1.87089 -1.87089,5.61266 0,3.74178 l 12.91038,-12.91038 c 1.87088,-1.87089 1.87088,1.87089 0,3.74177 L 150.4936,169.0058 c -1.87089,1.87089 -1.87089,5.61266 0,3.74177 l 12.91038,-12.91037 c 1.87088,-1.87089 1.87088,1.87088 0,3.74177 l -12.91038,12.91038 c -1.87089,1.87088 -1.87089,5.61265 0,3.74177 l 12.91038,-12.91038 c 1.87088,-1.87088 1.87088,1.87089 0,3.74177 l -12.91038,12.91038 c -1.87089,1.87089 -1.87089,5.61266 0,3.74177 l 12.91038,-12.91037 c 1.87088,-1.87089 1.87088,1.87088 0,3.74177 l -12.91038,12.91038 c -1.87089,1.87088 -1.87089,5.61266 0,3.74177 l 12.91038,-12.91038 c 1.87088,-1.87088 1.87088,1.87089 0,3.74178 l -12.91038,12.91037 c -1.87089,1.87089 -1.87089,5.61266 0,3.74178 l 14.31354,-14.31355"
           id="path1313" />
      </g>
      <g
         id="g1320">
        <path
           sodipodi:type="inkscape:box3dside"
           id="path2148"
           style="fill:#8686bf;fill-rule:evenodd;stroke:none;stroke-linejoin:round"
           inkscape:box3dsidetype="3"
           d="M 148.95814,90.257514 V 207.22408 l -19.25309,-7.59019 V 97.785456 Z"
           points="148.95814,207.22408 129.70505,199.63389 129.70505,97.785456 148.95814,90.257514 " />
        <path
           style="fill:none;stroke:none;stroke-width:1"
           d="m 134.32152,96.122465 -3.08101,3.081014 c -1.87089,1.870891 -1.87089,5.612661 0,3.741771 l 7.82196,-7.821965 c 1.87089,-1.870886 8.01501,-4.273231 6.14412,-2.402345 l -13.96608,13.96608 c -1.87089,1.87089 -1.87089,5.61266 0,3.74178 l 16.18217,-16.18218 c 1.87089,-1.870886 1.87089,1.870886 0,3.741773 l -16.18217,16.182177 c -1.87089,1.87089 -1.87089,5.61266 0,3.74177 l 16.18217,-16.18217 c 1.87089,-1.87089 1.87089,1.87088 0,3.74177 l -16.18217,16.18218 c -1.87089,1.87088 -1.87089,5.61265 0,3.74177 l 16.18217,-16.18218 c 1.87089,-1.87088 1.87089,1.87089 0,3.74177 l -16.18217,16.18218 c -1.87089,1.87089 -1.87089,5.61266 0,3.74177 l 16.18217,-16.18217 c 1.87089,-1.87089 1.87089,1.87088 0,3.74177 l -16.18217,16.18218 c -1.87089,1.87088 -1.87089,5.61266 0,3.74177 l 16.18217,-16.18218 c 1.87089,-1.87088 1.87089,1.87089 0,3.74178 l -16.18217,16.18217 c -1.87089,1.87089 -1.87089,5.61266 0,3.74178 l 16.18217,-16.18218 c 1.87089,-1.87089 1.87089,1.87089 0,3.74177 l -16.18217,16.18218 c -1.87089,1.87089 -1.87089,5.61266 0,3.74177 l 16.18217,-16.18217 c 1.87089,-1.87089 1.87089,1.87088 0,3.74177 l -16.18217,16.18218 c -1.87089,1.87088 -1.87089,5.61265 0,3.74177 l 16.18217,-16.18218 c 1.87089,-1.87088 1.87089,1.87089 0,3.74177 l -16.18217,16.18218 c -1.87089,1.87089 -1.87089,5.61266 0,3.74177 l 16.18217,-16.18217 c 1.87089,-1.87089 1.87089,1.87088 0,3.74177 l -16.18217,16.18218 c -1.87089,1.87088 -1.87089,5.61266 0,3.74177 l 16.18217,-16.18218 c 1.87089,-1.87088 1.87089,1.87089 0,3.74178 l -16.18217,16.18217 c -1.87089,1.87089 -1.87089,5.61266 0,3.74178 l 16.18217,-16.18218 c 1.87089,-1.87089 1.87089,1.87089 0,3.74177 l -16.18217,16.18218 c -1.87089,1.87089 -1.87089,5.61266 0,3.74177 l 16.18217,-16.18217 c 1.87089,-1.87089 1.87089,1.87088 0,3.74177 l -16.18217,16.18218 c -1.87089,1.87088 -0.37138,4.11314 1.49951,2.24226 l 14.68266,-14.68267 c 1.87089,-1.87088 1.87089,1.87089 0,3.74177 l -11.99891,11.99892 c -1.87088,1.87088 0.81287,2.9289 2.68375,1.05802 l 9.31516,-9.31516 c 1.87089,-1.87089 1.87089,1.87088 0,3.74177 l -6.63141,6.63141 c -1.87088,1.87089 0.81287,2.92891 2.68376,1.05802 l 3.94765,-3.94766 c 1.87089,-1.87088 1.87089,1.87089 0,3.74178 l -1.97383,1.97383 c -0.92432,0.92432 1.75943,1.98234 2.68376,1.05802 l 0.69324,-0.69324"
           id="path1318" />
      </g>
    </g>
    <path
       sodipodi:type="spiral"
       style="fill:none;fill-rule:evenodd;stroke:#000000;stroke-width:0.264583"
       id="path2291"
       sodipodi:cx="103.86537"
       sodipodi:cy="104.37202"
       sodipodi:expansion="1"
       sodipodi:revolution="3.0873611"
       sodipodi:radius="43.829834"
       sodipodi:argument="-16.272867"
       sodipodi:t0="0.0052198125"
       d="m 103.66074,104.47433 c -2.0484,0.77743 -2.17677,-2.39758 -1.4849,-3.48139 1.8789,-2.943301 6.16404,-2.072988 8.24305,0.10232 3.64886,3.81788 2.16971,9.95676 -1.68954,13.00471 -5.61768,4.43673 -13.803215,2.28617 -17.766377,-3.27675 -5.258227,-7.38075 -2.412195,-17.66998 4.863979,-22.528043 9.129588,-6.095528 21.546738,-2.543424 27.289698,6.451199 6.94136,10.871554 2.67772,25.429224 -8.03842,32.051364 -12.6097,7.79229 -29.315292,2.81395 -36.813025,-9.62564 -8.646499,-14.34552 -2.951473,-33.203772 11.212863,-41.574692 16.079812,-9.502939 37.093942,-3.089908 46.336352,12.800084 10.36097,17.813058 3.229,40.985338 -14.3873,51.098018 -19.54554,11.22016 -44.877675,3.36859 -55.859683,-15.97453 -3.199528,-5.63547 -5.089288,-11.98381 -5.526291,-18.4478" />
    <circle
       id="path2540"
       style="fill:#00ff00;stroke:#000000;stroke-width:0.264583"
       cx="350.60895"
       cy="212.79735"
       r="0.067486666" />
    <g
       id="g1328">
      <path
         sodipodi:type="star"
         style="fill:#ffff00;fill-opacity:1;stroke:#000000;stroke-width:0.264583"
         id="path2236"
         inkscape:flatsided="false"
         sodipodi:sides="5"
         sodipodi:cx="80.05233"
         sodipodi:cy="56.2393"
         sodipodi:r1="28.737068"
         sodipodi:r2="24.440309"
         sodipodi:arg1="1.4114446"
         sodipodi:arg2="-2.895961"
         inkscape:rounded="0"
         inkscape:randomized="0"
         d="M 84.612276,84.61228 56.345623,50.296173 54.477123,69.343799 78.378805,31.856354 59.686037,35.965346 102.72474,47.112938 93.040476,30.604808 95.738176,74.981844 108.44574,60.670267 67.074305,76.949191 Z"
         inkscape:transform-center-x="1.7222342"
         inkscape:transform-center-y="0.8295278" />
      <path
         style="stroke:#000000;fill:none;stroke-width:0.264583"
         d="M 65.149098,34.899921 l -0.930797,0.930797 c -1.241063,1.241063 1.730925,2.010847 2.971989,0.769784 l 1.351665,-1.351665 c 1.870886,-1.870886 6.666907,-2.925134 4.796021,-1.054248 l -2.703329,2.703329 c -1.870886,1.870886 1.101102,2.640671 2.971989,0.769784 l 1.107839,-1.107839 c 1.870886,-1.870886 0.711620,3.030153 -1.159266,4.901039 l -3.154698,3.154698 M 55.989146,55.285192 l 1.177435,-1.177435 c 1.569913,-1.569913 3.259954,0.481819 1.690040,2.051732 l -1.871287,1.871287 c -1.870886,1.870886 -2.277863,6.019636 -0.406977,4.148750 l 5.145739,-5.145739 M 63.817539,54.940345 l 12.709657,-12.709657 c 1.870886,-1.870886 4.842875,-1.101102 2.971989,0.769784 l -14.493922,14.493922 c -1.870886,1.870886 -0.180846,3.922619 1.690040,2.051732 l 15.775870,-15.775870 c 1.870886,-1.870886 4.842875,-1.101102 2.971989,0.769784 l -17.057818,17.057818 c -1.870886,1.870886 -0.180846,3.922619 1.690040,2.051732 l 18.339766,-18.339766 c 1.870886,-1.870886 4.842875,-1.101102 2.971989,0.769784 l -19.621715,19.621715 c -1.870886,1.870886 -0.180846,3.922619 1.690040,2.051732 l 19.063398,-19.063398 c 1.870886,-1.870886 2.085315,1.656458 0.214429,3.527344 l -17.587786,17.587786 c -1.870886,1.870886 -0.180846,3.922619 1.690040,2.051732 l 16.112174,-16.112174 c 1.870886,-1.870886 2.085315,1.656458 0.214429,3.527344 l -10.583676,10.583676 c -1.870886,1.870886 4.298385,-0.556612 6.169272,-2.427499 l 5.291838,-5.291838 c 0.986880,-0.986880 1.201309,2.540464 0.214429,3.527344 l 0.000000,-0.000000 c -0.986880,0.986880 0.957750,2.784023 1.944630,1.797142 l 1.612527,-1.612527 c 1.870886,-1.870886 8.040158,-4.298385 6.169272,-2.427499 l -8.307530,8.307530 M 56.368729,66.130928 l -1.600513,1.600513 M 93.314193,32.927237 l 0.294752,-0.294752 c 0.393002,-0.393002 1.776470,1.965303 1.383467,2.358306 l -0.584519,0.584519 c -1.172361,1.172361 -0.957933,4.699705 0.214429,3.527344 l 0.645144,-0.645144 c 1.870886,-1.870886 3.254354,0.487419 1.383467,2.358306 l -1.290289,1.290289 c -1.870886,1.870886 0.151012,3.590761 2.021899,1.719874 l 1.120189,-1.120189 c 1.246444,-1.246444 2.629911,1.111862 1.383467,2.358306 l -0.934833,0.934833 M 68.367976,76.582319 l -0.274111,0.274111 c -0.365481,0.365481 2.238501,1.503272 2.603982,1.137791 l 2.436236,-2.436236 c 1.870886,-1.870886 4.268100,-0.526327 2.397213,1.344559 l -1.100413,1.100413 c -1.870886,1.870886 0.733095,3.008677 2.603982,1.137791 l 0.550207,-0.550207 c 1.385907,-1.385907 3.075947,0.665826 1.690040,2.051732 l -0.456971,0.456971 c -0.776612,0.776612 1.827370,1.914403 2.603982,1.137791 l 0.582459,-0.582459"
         id="path1326" />
    </g>
    <g
       id="g1333">
      <path
         d="m 92.522221,173.75695 c -0.58032,0.32843 -1.445512,0.79177 -2.347697,1.13046 -0.612726,0.23002 -1.223038,0.39653 -1.820672,0.46127 -0.19851,0.0215 -0.396102,0.0508 -0.592303,0.0879 -2.431315,0.45927 -6.311842,1.16869 -9.921612,2.45477 -0.424067,0.15108 -0.854472,0.31321 -1.289005,0.48765 -1.264749,0.50773 -2.686073,1.16827 -4.138318,2.03981 -1.675265,1.00538 -3.473478,2.33999 -5.155757,4.13751 -0.01014,0.0108 -0.02024,0.0217 -0.03032,0.0326 -1.337745,1.44627 -2.435538,3.07034 -3.303397,4.84213 -0.793027,1.61901 -1.365437,3.30217 -1.77044,5.0068 -0.73507,3.09387 -0.90563,6.2019 -0.896595,9.05784 7.06e-4,0.22328 0.01125,0.44644 0.03161,0.66879 -0.02248,-0.2456 0.0031,-0.31039 -0.02865,0.0841 -0.02527,0.31403 -0.08957,0.85653 -0.134503,1.63801 -0.03908,0.67971 -0.07567,1.81728 0.138459,3.08712 0.109627,0.6501 0.295706,1.40639 0.620337,2.20724 0.324182,0.79974 0.782855,1.63409 1.423317,2.43384 0.447561,0.55888 0.92084,1.10761 1.505801,1.5205 0.584961,0.41288 1.260524,0.67503 1.937023,0.90955 2.275381,0.7888 4.567427,1.15092 6.814138,1.18928 2.184249,0.0373 4.287748,-0.23156 6.265492,-0.67811 3.784527,-0.85451 7.265259,-2.3979 10.185179,-3.89152 3.123349,-1.54154 6.234695,-3.46611 8.727454,-4.88717 2.628597,-1.49849 4.889107,-2.6395 7.158537,-3.33452 0.039,-0.0119 0.0779,-0.0242 0.11675,-0.0368 0.20175,-0.0654 0.42004,-0.076 0.60305,-0.0409 0.16749,0.0322 0.23318,0.081 0.26114,0.10637 0.11221,0.10164 0.22744,0.1999 0.34552,0.29466 1.543,1.23821 2.90208,2.77077 4.84082,4.94787 1.74538,1.95996 3.98245,4.46402 6.79557,6.59556 1.13354,0.96784 1.91236,1.73811 2.43345,2.4326 0.25609,0.3413 0.39584,0.59541 0.47107,0.76727 0.0709,0.16201 0.0876,0.2568 0.0931,0.31063 0.009,0.0909 0.0203,0.18165 0.0329,0.27217 0.60995,4.37543 0.4604,8.73042 -0.33253,12.77541 -0.42486,1.32065 -1.16455,2.65795 -2.21245,4.04037 -1.15818,1.52791 -2.60876,3.00059 -4.20242,4.43917 -1.14716,0.94896 -2.4386,1.73996 -3.88288,2.43634 -1.55496,0.74975 -3.26523,1.37942 -5.1293,1.97179 -4.00222,1.27184 -8.545907,2.3116 -12.999792,3.97383 -0.0049,0.002 -0.0099,0.004 -0.0148,0.006 -1.787732,0.67143 -3.194047,1.30843 -4.306407,1.86466 a 7.599905,7.599905 90 0 0 6.798048,13.59488 c 0.662204,-0.33113 1.581446,-0.75251 2.845158,-1.22744 3.232175,-1.20539 7.415895,-2.17941 12.281205,-3.72553 2.22678,-0.70763 4.68046,-1.58652 7.12739,-2.76634 2.36824,-1.14189 4.81583,-2.60516 7.14872,-4.56499 0.0645,-0.0542 0.12811,-0.10945 0.19078,-0.16575 1.99444,-1.79192 4.26088,-4.02042 6.25736,-6.65423 1.90564,-2.51398 3.71394,-5.58853 4.776,-9.24408 0.0566,-0.19484 0.1054,-0.39188 0.14624,-0.59063 1.18936,-5.78795 1.42795,-11.96275 0.58035,-18.14281 -0.19234,-1.70742 -0.65068,-3.27761 -1.27266,-4.69843 -0.62966,-1.43836 -1.41631,-2.7002 -2.23717,-3.79422 -1.58966,-2.11864 -3.46702,-3.80982 -4.9383,-5.05377 -0.12136,-0.10261 -0.24591,-0.20138 -0.37346,-0.29618 -1.4991,-1.11414 -2.85876,-2.56986 -4.72394,-4.66435 -1.66637,-1.87124 -3.8565,-4.39839 -6.51944,-6.56515 -2.19017,-1.92046 -4.78232,-3.09696 -7.41182,-3.6021 -2.69699,-0.51811 -5.489,-0.34399 -8.09134,0.48733 -3.901777,1.20185 -7.325242,3.01821 -10.182247,4.64691 -3.212345,1.83128 -5.371403,3.20453 -7.966856,4.4816 -0.0372,0.0183 -0.07426,0.0369 -0.111156,0.0558 -2.440645,1.25093 -4.641215,2.16493 -6.65459,2.61953 -1.00552,0.22704 -1.885723,0.32028 -2.658282,0.30709 -0.778023,-0.0133 -1.464294,-0.13436 -2.095023,-0.35301 l 3.442824,2.43005 c 0.375611,0.46903 0.630441,0.94172 0.7989,1.3573 0.166753,0.41138 0.244068,0.75415 0.281374,0.97538 0.07865,0.46639 0.03675,0.51002 0.04809,0.31284 0.01174,-0.2041 0.05944,-0.65573 0.110581,-1.29121 0.04191,-0.52078 0.09747,-1.33784 0.04577,-2.2613 0.0038,-2.16845 0.154363,-3.86279 0.485191,-5.25523 0.181043,-0.762 0.400287,-1.35999 0.632529,-1.83412 0.244521,-0.49921 0.513491,-0.88204 0.797586,-1.19208 0.543596,-0.57711 1.169419,-1.05703 1.863129,-1.47335 0.614023,-0.36849 1.282028,-0.68717 1.979467,-0.96716 0.236193,-0.0948 0.478787,-0.18641 0.727606,-0.27506 2.220639,-0.79116 4.798479,-1.29922 7.381661,-1.78816 2.082747,-0.25974 3.85551,-0.80147 5.193778,-1.30386 2.024138,-0.75988 3.706342,-1.68763 4.492099,-2.13232 a 7.599905,7.599905 90 0 0 -7.486489,-13.22826 z"
         id="path-1"
         inkscape:path-effect="#path-effect2364;#path-effect2366"
         inkscape:original-d="m 96.265466,180.37108 c -3.333017,1.66651 -3.111858,1.83071 -7.093245,2.53331 -12.561964,2.21681 -20.266414,5.76953 -20.266414,19.25309 0,0.7198 -0.35437,6.45369 0,6.58658 14.193302,5.32249 30.324838,-14.88696 40.026163,-11.65318 4.07159,1.35719 8.24498,7.23165 11.14653,10.1332 3.49958,3.49958 5.04731,3.7362 8.10657,8.10657 2.40529,3.43613 1.88556,16.1297 0.50666,20.26641 -1.27434,3.82303 -4.69498,7.92861 -7.59991,10.63987 -8.12101,7.57961 -19.57421,7.50713 -28.879637,12.15985"
         style="fill:#000080;fill-opacity:1;fill-rule:nonzero;stroke:none" />
      <path
         style="stroke:none;fill:none;stroke-width:1.0"
         d="M 69.804377,182.353450 l -2.460355,2.460355 c -1.870886,1.870886 -5.227801,8.969574 -3.356915,7.098688 l 12.492978,-12.492978 c 1.870886,-1.870886 7.152607,-3.410834 5.281721,-1.539948 l -18.688718,18.688718 c -1.870886,1.870886 -2.135884,5.877657 -0.264998,4.006771 l 23.611468,-23.611468 c 1.870886,-1.870886 7.883564,-4.141791 6.012678,-2.270905 l -29.771277,29.771277 c -1.870886,1.870886 -1.654345,5.396118 0.216542,3.525231 l 33.521864,-33.521864 c 1.870886,-1.870886 4.501145,-0.759372 2.630258,1.111515 l -15.355622,15.355622 c -1.870886,1.870886 3.360574,0.381199 5.231460,-1.489687 l 12.023292,-12.023292 c 1.870886,-1.870886 3.052664,0.689109 1.181778,2.559995 l -8.597881,8.597881 c -1.870886,1.870886 3.728038,0.013735 5.598924,-1.857151 l 2.944718,-2.944718 c 1.870886,-1.870886 2.248594,5.234952 0.377708,7.105838 l -24.700454,24.700454 c -1.870886,1.870886 -5.684773,1.943000 -3.813887,0.072114 l 24.581103,-24.581103 M 76.856629,197.751836 l -2.661461,2.661461 c -1.870886,1.870886 1.872018,5.611528 3.742904,3.740642 l 4.592043,-4.592043 M 72.334537,202.273928 l -8.452165,8.452165 c -1.870886,1.870886 -0.290534,4.032307 1.580352,2.161421 l 7.662168,-7.662168 c 1.870886,-1.870886 3.373131,0.368642 1.502244,2.239529 l -6.889049,6.889049 c -1.870886,1.870886 1.024316,2.717457 2.895203,0.846570 l 20.507363,-20.507363 M 80.904968,216.154135 l 25.417116,-25.417116 c 1.870886,-1.870886 5.035662,-1.293889 3.164776,0.576997 l -22.899977,22.899977 M 94.393080,210.149569 l 17.780659,-17.780659 c 1.870886,-1.870886 4.183735,-0.441962 2.312848,1.428925 l -10.322698,10.322698 c -1.870886,1.870886 2.707179,1.034594 4.578065,-0.836292 l 7.785726,-7.785726 c 1.870886,-1.870886 3.785996,-0.044223 1.915109,1.826663 l -7.753293,7.753293 c -1.870886,1.870886 -0.068589,3.810362 1.802297,1.939475 l 7.769512,-7.769512 c 1.870886,-1.870886 3.638671,0.103102 1.767785,1.973988 l -7.771024,7.771024 c -1.870886,1.870886 -0.069096,3.810869 1.801791,1.939982 l 7.755642,-7.755642 c 1.870886,-1.870886 3.773510,-0.031737 1.902624,1.839149 l -7.770100,7.770100 c -1.870886,1.870886 0.149752,3.592021 2.020639,1.721134 l 7.799241,-7.799241 c 1.870886,-1.870886 3.800930,-0.059157 1.930043,1.811730 l -7.753058,7.753058 c -1.870886,1.870886 -0.402809,4.144582 1.468077,2.273696 l 8.055543,-8.055543 c 1.870886,-1.870886 3.421576,0.320197 1.550690,2.191083 l -9.273338,9.273338 c -1.870886,1.870886 -1.845866,5.587639 0.025021,3.716752 l 10.515996,-10.515996 c 1.870886,-1.870886 2.762646,0.979127 0.891760,2.850013 l -13.243246,13.243246 M 91.399558,250.560819 l -5.137592,5.137592 c -1.870886,1.870886 -1.656295,5.398068 0.214592,3.527181 l 9.316378,-9.316378 c 1.870886,-1.870886 7.138865,-3.397092 5.267979,-1.526206 l -13.275883,13.275883 c -1.870886,1.870886 0.128286,3.613487 1.999173,1.742600 l 18.089013,-18.089013 M 91.141592,265.785878 l 44.496974,-44.496974 c 1.870886,-1.870886 2.120871,1.620902 0.249985,3.491788 l -38.856324,38.856324 c -1.870886,1.870886 4.126850,-0.385077 5.997736,-2.255963 l 32.877924,-32.877924 c 1.870886,-1.870886 1.601853,2.139920 -0.269034,4.010807 l -27.346735,27.346735 c -1.870886,1.870886 3.552130,0.189643 5.423016,-1.681244 l 21.278205,-21.278205 c 1.870886,-1.870886 -0.204924,3.946697 -2.075811,5.817584 l -14.169118,14.169118"
         id="path1331" />
    </g>
    <g
       id="g1338"
       style="display:none">
      <path
         d="m 152.43864,160.0917 c 0.19486,-1.46755 0.27144,-3.10029 0.17774,-5.1824 -0.0658,-1.46241 -0.18617,-2.67798 -0.28795,-4.06919 -0.0817,-1.117 -0.12646,-2.07479 -0.086,-2.92403 0.0342,-0.71864 0.12651,-1.28109 0.27213,-1.751 0.006,-0.0192 0.012,-0.0383 0.0182,-0.0575 0.0168,-0.0516 0.0329,-0.10342 0.0486,-0.15538 0.67351,-2.23902 1.74851,-4.82223 3.62493,-8.13778 1.5297,-2.70293 3.1651,-5.18033 5.36446,-8.52752 2.19733,-3.2496 5.24216,-7.66075 7.84702,-11.73256 0.26891,-0.35324 0.60803,-0.75404 1.07098,-1.27538 0.44739,-0.50383 1.21083,-1.33888 1.83618,-2.07299 0.68291,-0.80166 1.46048,-1.77579 2.18197,-2.90716 0.73838,-1.15786 1.43499,-2.50547 1.94323,-4.06431 0.051,-0.15636 0.0969,-0.31434 0.1376,-0.47368 0.4722,-1.8473 0.55627,-3.62338 0.40591,-5.25707 -0.15239,-1.655793 -0.54343,-3.147278 -0.9916,-4.420536 -0.89699,-2.548427 -2.26629,-4.835981 -3.06081,-6.165493 -0.90939,-1.542806 -1.16514,-1.984592 -1.48212,-2.61711 a 7.599905,7.599905 90 0 0 -13.58898,6.809824 c 0.58051,1.158404 1.08707,2.016282 1.98846,3.545456 0.008,0.0131 0.0155,0.02618 0.0233,0.03923 0.86292,1.444036 1.45783,2.512016 1.78258,3.434646 0.13787,0.39169 0.18144,0.63752 0.19335,0.76702 0.0111,0.12004 0.003,0.1011 0.004,0.0998 0.0407,-0.15934 0.0866,-0.31731 0.1376,-0.47367 -0.0391,0.11999 -0.1144,0.3 -0.30777,0.60323 -0.20035,0.31417 -0.48953,0.69795 -0.93699,1.22322 -0.50083,0.58792 -0.92476,1.04175 -1.63103,1.83711 -0.62761,0.70677 -1.38173,1.57978 -2.10375,2.56897 -0.094,0.12873 -0.18385,0.26038 -0.26953,0.39476 -2.49042,3.90589 -5.39706,8.11239 -7.79867,11.66409 -0.0188,0.0278 -0.0374,0.0557 -0.0558,0.0838 -2.14477,3.26422 -4.08526,6.19258 -5.91743,9.42995 -2.32026,4.09981 -3.87952,7.70169 -4.9304,11.17361 -0.0176,0.055 -0.0348,0.10973 -0.0517,0.16417 -0.62583,2.01945 -0.8594,3.91654 -0.93612,5.52719 -0.0862,1.80939 0.0192,3.52398 0.10931,4.75618 0.1337,1.82761 0.20936,2.45594 0.26281,3.64356 0.0589,1.3087 7.2e-4,2.03451 -0.0609,2.49832 a 7.599905,7.599905 90 0 0 15.06756,2.0007 z"
         id="path-1-5"
         inkscape:path-effect="#path-effect2371;#path-effect2373"
         inkscape:original-d="m 144.90486,159.09135 c 0.62513,-4.43284 -0.87656,-9.29705 0,-13.67983 1.9769,-9.8845 12.49617,-22.90291 17.73311,-31.41294 1.62602,-2.64228 5.82041,-6.05518 6.58659,-9.11989 1.21407,-4.85627 -2.5265,-9.106279 -4.55995,-13.173167"
         style="fill:#ff00ff;fill-opacity:1;fill-rule:nonzero;stroke:none" />
      <path
         style="fill:none;stroke:none;stroke-width:1"
         d="m 157.37383,90.113017 4.29701,-4.297011 c 1.87089,-1.870886 5.49905,-1.757277 3.62816,0.11361 l -6.41291,6.412912 c -1.87089,1.870886 -0.69661,4.438379 1.17428,2.567493 l 7.73369,-7.73369 c 1.87089,-1.870886 3.65751,0.08426 1.78662,1.95515 l -8.14896,8.148963 c -1.87089,1.870886 -0.53417,4.275936 1.33672,2.405054 l 8.15501,-8.155009 c 1.87088,-1.870886 3.25025,0.491518 1.37937,2.362404 l -15.64468,15.644677 m -7.58959,11.33137 24.51193,-24.511933 c 1.87088,-1.870886 2.93514,0.806627 1.06425,2.677514 L 144.06956,129.6097 c -1.87089,1.87088 -5.23337,8.97514 -3.36249,7.10426 l 34.64803,-34.64803 c 1.87088,-1.87089 1.98181,1.75996 0.11093,3.63085 L 139.062,142.10081 c -1.87089,1.87088 -2.39846,6.14023 -0.52757,4.26934 l 36.89142,-36.89143 m -9.70142,13.4432 -27.05694,27.05694 c -1.87089,1.87088 -1.61055,5.35232 0.26033,3.48143 l 19.59302,-19.59301 m -4.73079,8.47256 -14.93546,14.93546 c -1.87089,1.87089 -1.33843,5.08021 0.53245,3.20932 l 11.33146,-11.33145 c 1.87088,-1.87089 1.98696,1.75481 0.11607,3.6257 l -9.99275,9.99275 c -1.87089,1.87089 0.27157,3.4702 2.14246,1.59932 l 8.09445,-8.09446 c 1.87089,-1.87089 1.84062,1.90116 -0.0303,3.77204 l -6.49652,6.49652"
         id="path1336" />
    </g>
    <g
       id="g1343">
      <path
         style="fill:#00ff00;fill-opacity:1;stroke:#000000;stroke-width:0.264583"
         id="path2489"
         d="m 40.36872,116.2847 c -1.887845,4.63325 -4.517914,8.91654 -6.570496,13.47334 -0.443275,0.98409 -0.833676,1.99116 -1.250514,2.98673 -2.145696,5.4293 -3.363978,11.18045 -3.888086,16.98196 -0.124785,2.52474 0.105471,4.96927 1.543653,7.14194 2.357308,3.56119 6.404936,5.25216 9.971847,7.24278 0.958284,0.35276 1.891112,0.78441 2.874854,1.05827 2.36492,0.65836 5.506654,1.05571 7.907414,1.30561 4.930235,0.51319 9.88555,0.59627 14.835963,0.73291 7.278457,0.15769 14.558692,0.16402 21.838401,0.14294 2.356662,0.0529 4.71892,-0.09 7.07523,-0.0186 1.837664,0.0557 3.661619,0.29335 5.481514,0.53391 0.61903,0.14198 1.2474,0.24807 1.85708,0.42594 0.69276,0.20212 1.36433,0.47093 2.04441,0.71234 4.10948,1.45871 8.02235,3.32932 11.96788,5.17689 1.15412,0.56152 2.31684,1.1057 3.46236,1.68455 1.16995,0.59119 2.3281,1.20565 3.48329,1.82519 3.15233,1.69061 6.27736,4.23908 9.11183,6.42833 3.7446,2.93864 7.34412,6.06873 10.59527,9.55134 2.04042,2.18568 2.84399,3.22823 4.75991,5.54333 2.77499,3.51314 5.22258,7.30936 7.15849,11.35198 1.0101,2.10932 1.326,3.11696 2.12399,5.28226 0.82404,2.55879 1.6378,5.18183 1.86706,7.8776 0.11662,1.37122 0.0247,1.76755 -0.095,3.1079 -0.20346,2.07773 -0.93469,4.04413 -2.64836,5.34822 -0.32764,0.24935 -0.70015,0.43345 -1.05022,0.65017 -2.69439,1.21131 -5.63766,1.62248 -8.52511,2.11367 -2.68292,0.4715 -5.38173,0.73785 -8.10008,0.88684 -2.98542,0.14048 -5.97483,0.13778 -8.96274,0.15541 -7.52877,0.0678 -15.05559,0.0304 -22.58373,-0.0798 -9.666939,-0.21045 -19.33566,-0.28596 -29.004437,-0.34582 -5.979443,0.0634 -11.9879,-0.34363 -17.947547,0.27686 -3.836837,0.40558 -6.506176,1.76022 -9.624767,3.9111 -1.531477,1.4489 -3.25025,2.89181 -4.233124,4.80442 -0.510987,0.99435 -0.647142,1.69695 -0.942118,2.76278 -0.163332,1.53776 -0.723765,3.61713 0.475404,4.91061 0.282757,0.305 0.637204,0.54635 1.006961,0.73676 1.644008,0.84661 3.345215,1.5772 5.017823,2.3658 6.871306,1.03023 13.889453,0.40224 20.762973,-0.28608 9.257208,-1.08935 18.507379,-2.41359 27.635086,-4.32482 6.740956,-1.41148 9.020846,-2.11257 15.606936,-3.86857 5.95841,-1.63942 11.8394,-3.53902 17.72957,-5.40359 0,0 -3.00735,-2.04464 -3.00735,-2.04464 v 0 c -5.82666,1.91743 -11.64955,3.85375 -17.56181,5.49644 -6.62532,1.77736 -8.7787,2.45578 -15.572265,3.8606 -9.18137,1.89857 -18.488692,3.12873 -27.80045,4.16954 -6.909279,0.63049 -13.985084,1.24175 -20.865669,0.0353 0.567214,0.47341 1.247114,0.83776 1.701641,1.42022 0.24823,0.31809 -0.742338,-0.33809 -1.055613,-0.59237 -1.342938,-1.09008 -0.78391,-3.15054 -0.64748,-4.61332 0.279087,-1.04099 0.394726,-1.69045 0.888005,-2.65951 0.951537,-1.86933 2.612813,-3.29491 4.131228,-4.6822 3.082223,-2.10443 5.726183,-3.37237 9.499052,-3.76312 5.903367,-0.60037 11.851214,-0.26969 17.774208,-0.35151 9.654254,0.042 19.307992,0.14555 28.960833,0.31884 7.59412,0.12963 15.18833,0.22977 22.78377,0.21711 2.99944,0.006 6.00094,0.011 8.99686,-0.1568 2.73098,-0.1587 5.44493,-0.42681 8.13883,-0.91487 2.92163,-0.52127 5.90773,-0.94995 8.61307,-2.23918 0.36665,-0.23725 0.75712,-0.44121 1.09995,-0.71175 1.75151,-1.38221 2.55375,-3.44205 2.76246,-5.60381 0.12712,-1.33765 0.23013,-1.82794 0.12182,-3.19565 -0.21642,-2.73322 -1.05804,-5.39244 -1.89724,-7.98202 -0.78169,-2.13474 -1.13925,-3.25824 -2.12651,-5.33692 -1.9339,-4.0718 -4.39043,-7.89551 -7.16489,-11.4405 -1.90877,-2.32646 -2.70546,-3.36882 -4.73883,-5.56789 -3.24177,-3.50592 -6.83421,-6.65628 -10.5857,-9.60394 -2.01986,-1.5715 -3.83283,-3.03703 -5.95672,-4.46973 -5.21748,-3.5195 -10.82141,-6.46525 -16.49112,-9.17824 -4.60522,-2.15289 -9.24206,-4.54723 -14.16824,-5.90496 -0.619739,-0.17081 -1.25716,-0.26937 -1.885741,-0.40406 -4.16656,-0.52573 -8.338399,-0.55113 -12.534529,-0.43553 -7.230282,0.0455 -14.461691,0.10355 -21.691193,-0.0507 -4.959942,-0.14072 -9.926505,-0.24736 -14.86286,-0.80041 -2.551914,-0.28591 -5.439685,-0.68857 -7.924165,-1.42575 -0.976526,-0.28975 -1.900819,-0.73288 -2.851229,-1.09932 0.206825,0.17189 0.83557,0.67709 0.620469,0.51568 -0.757335,-0.56832 -1.549286,-1.09753 -2.247749,-1.73683 -2.089113,-1.91216 -3.22761,-3.78077 -3.519143,-6.61809 -0.08207,-0.79876 -0.01828,-1.60583 -0.02742,-2.40874 0.489045,-5.77345 1.660736,-11.49677 3.792238,-16.9006 0.413322,-0.98992 0.800738,-1.99106 1.239965,-2.96976 2.049468,-4.56668 4.652962,-8.86313 6.702491,-13.4292 0,0 -3.411815,-1.90524 -3.411815,-1.90524 z" />
      <path
         style="stroke:#000000;fill:none;stroke-width:0.264583"
         d="M 37.816018,122.033068 l 3.102915,-3.102915 c 1.870886,-1.870886 1.548133,2.193640 -0.322754,4.064527 l -5.280677,5.280677 c -1.870886,1.870886 -4.212383,7.954156 -2.341497,6.083270 l 3.796966,-3.796966 c 1.870886,-1.870886 -1.082995,4.824768 -2.953882,6.695655 l -2.235661,2.235661 c -1.870886,1.870886 -2.747128,6.488901 -0.876242,4.618015 l 1.475471,-1.475471 c 1.870886,-1.870886 0.890889,2.850884 -0.979997,4.721770 l -1.007118,1.007118 c -1.870886,1.870886 -1.703402,5.445175 0.167485,3.574288 l 0.642822,-0.642822 c 1.364325,-1.364325 1.299652,2.442121 -0.064673,3.806446 l -0.394054,0.394054 c -0.838920,0.838920 0.738920,3.002853 1.577840,2.163933 l 0.254818,-0.254818 c 0.499163,-0.499163 1.970543,1.771230 1.471381,2.270392 l -0.374372,0.374372 M 41.418534,163.331827 l -0.403163,0.403163 c -0.537551,0.537551 2.223474,1.518299 2.761024,0.980749 l 0.186536,-0.186536 c 0.786265,-0.786265 4.088204,-0.346431 3.301939,0.439834 l -0.099283,0.099283 c -0.918643,0.918643 2.369845,1.371928 3.288488,0.453285 l 0.065875,-0.065875 c 1.006476,-1.006476 4.531124,-0.789351 3.524648,0.217125 l -0.058527,0.058527 c -1.084512,1.084512 2.429651,1.312122 3.514163,0.227610 l 0.040969,-0.040969 c 1.139138,-1.139138 4.773055,-1.031282 3.633917,0.107856 l -0.020533,0.020533 c -1.166516,1.166516 2.471175,1.270598 3.637690,0.104083 l 0.015287,-0.015287 c 1.186898,-1.186898 4.892284,-1.150511 3.705386,0.036387 l -0.024136,0.024136 c -1.219079,1.219079 2.464889,1.276884 3.683968,0.057805 l 0.022341,-0.022341 c 1.248868,-1.248868 4.999432,-1.257659 3.750565,-0.008792 l -0.021805,0.021805 c -1.277941,1.277941 2.447268,1.294505 3.725210,0.016563 l 0.016315,-0.016315 c 1.299694,-1.299694 5.064352,-1.322579 3.764658,-0.022885 l -0.015438,0.015438 c -1.320278,1.320278 2.427490,1.314283 3.747768,-0.005995 l 0.058399,-0.058399 c 1.307144,-1.307144 4.981088,-1.239315 3.673945,0.067828 l -0.136636,0.136636 c -1.124963,1.124963 2.655182,1.086591 3.780144,-0.038371 l 0.156495,-0.156495 c 0.916302,-0.916302 4.151167,-0.409394 3.234865,0.506908 l -0.222342,0.222342 c -0.619846,0.619846 2.689353,1.052420 3.309199,0.432574 l 0.101055,-0.101055 c 0.485106,-0.485106 3.197256,0.544517 2.712150,1.029623 l -0.056586,0.056586 c -0.409658,0.409658 2.318054,1.423718 2.727713,1.014060 l 0.046911,-0.046911 c 0.347110,-0.347110 2.904828,0.836945 2.557718,1.184055 l -0.260332,0.260332 M 52.385271,238.425868 l -5.346066,5.346066 c -1.870886,1.870886 -2.746033,6.487806 -0.875146,4.616919 l 10.853315,-10.853315 c 1.837923,-1.837923 5.986074,-2.244301 4.148151,-0.406378 l -0.282175,0.282175 c -1.461689,1.461689 2.966639,0.775134 4.428328,-0.686555 l 0.106493,-0.106493 c 1.319698,-1.319698 5.050721,-1.308948 3.731022,0.010751 l -0.045356,0.045356 c -1.259223,1.259223 2.528075,1.213698 3.787298,-0.045525 l 0.000000,-0.000000 c 1.259223,-1.259223 4.994643,-1.252870 3.735420,0.006353 l -0.016176,0.016176 c -1.254906,1.254906 2.477063,1.264710 3.731969,0.009804 l 0.010915,-0.010915 c 1.240353,-1.240353 4.956428,-1.214655 3.716075,0.025698 l -0.005975,0.005975 c -1.232385,1.232385 2.487211,1.254562 3.719597,0.022176 l 0.001898,-0.001898 c 1.229854,-1.229854 4.936791,-1.195018 3.706937,0.034836 l -0.005288,0.005288 c -1.222804,1.222804 2.484652,1.257121 3.707456,0.034317 l 0.004851,-0.004851 c 1.216337,-1.216337 4.904418,-1.162645 3.688082,0.053691 l -0.008549,0.008549 c -1.204938,1.204938 2.490069,1.251704 3.695007,0.046766 l 0.006313,-0.006313 c 1.196521,-1.196521 4.868477,-1.126704 3.671956,0.069817 l -0.000000,-0.000000 c -1.196521,1.196521 2.485735,1.256038 3.682255,0.059518 l 0.007334,-0.007334 c 1.206299,-1.206299 4.912040,-1.170268 3.705741,0.036032 l -0.011291,0.011291 c -1.221354,1.221354 2.465640,1.276133 3.686994,0.054779 l 0.017117,-0.017117 c 1.244176,-1.244176 4.980844,-1.239071 3.736668,0.005105 l -0.020649,0.020649 c -1.271708,1.271708 2.433008,1.308765 3.704717,0.037056 l 0.023334,-0.023334 c 1.302820,-1.302820 5.069258,-1.327485 3.766438,-0.024665 l -0.023203,0.023203 c -1.333757,1.333757 2.400811,1.340962 3.734568,0.007205 l 0.016781,-0.016781 c 1.356132,-1.356132 5.180604,-1.438831 3.824472,-0.082699 l -0.040953,0.040953 c -1.410737,1.410737 2.382678,1.359095 3.793415,-0.051642 l 0.123702,-0.123702 c 1.575672,-1.575672 5.795121,-2.053349 4.219449,-0.477676 l -0.141074,0.141074 c -1.763771,1.763771 2.398699,1.343074 4.162470,-0.420698 l 0.289293,-0.289293 c 1.870886,-1.870886 7.759791,-4.018018 5.888904,-2.147132 l -1.620023,1.620023 c -1.870886,1.870886 3.052609,0.689164 4.923496,-1.181723 l 2.449284,-2.449284 c 1.870886,-1.870886 2.320164,-6.061937 0.449277,-4.191050 l -2.110788,2.110788 c -1.864775,1.864775 -0.180376,-3.561397 1.684399,-5.426172 l 0.268741,-0.268741 c 1.506453,-1.506453 0.736187,-4.477960 -0.770266,-2.971507 l -0.111939,0.111939 c -1.357201,1.357201 -2.046170,-1.695602 -0.688969,-3.052804 l 0.071306,-0.071306 c 1.262126,-1.262126 0.252293,-3.994066 -1.009834,-2.731939 l -0.085411,0.085411 c -1.148246,1.148246 -2.143732,-1.598040 -0.995487,-2.746286 l 0.080415,-0.080415 c 1.041026,-1.041026 -0.238041,-3.503732 -1.279067,-2.462706 l -0.062984,0.062984 c -0.957047,0.957047 -2.210139,-1.531634 -1.253092,-2.488681 l 0.056118,-0.056118 c 0.882223,-0.882223 -0.585829,-3.155944 -1.468052,-2.273721 l -0.050801,0.050801 c -0.814488,0.814488 -2.261895,-1.479878 -1.447407,-2.294366 l 0.049485,-0.049485 c 0.748508,-0.748508 -0.881824,-2.859949 -1.630332,-2.111441 l -0.038589,0.038589 c -0.697056,0.697056 -2.306280,-1.435493 -1.609223,-2.132550 l 0.021416,-0.021416 c 0.668502,-0.668502 -1.063044,-2.678729 -1.731546,-2.010227 l -0.040105,0.040105 c -0.615029,0.615029 -2.334053,-1.407719 -1.719024,-2.022749 l 0.038352,-0.038352 c 0.563894,-0.563894 -1.301730,-2.440043 -1.865623,-1.876150 l -0.037462,0.037462 c -0.513944,0.513944 -2.367547,-1.374226 -1.853603,-1.888170 l 0.034240,-0.034240 c 0.468290,-0.468290 -1.517715,-2.224058 -1.986005,-1.755768 l -0.030671,0.030671 c -0.427396,0.427396 -2.402105,-1.339668 -1.974709,-1.767064 l 0.025586,-0.025586 c 0.393281,-0.393281 -1.684031,-2.057742 -2.077312,-1.664461 l -0.017085,0.017085 c -0.370501,0.370501 -2.439931,-1.301842 -2.069429,-1.672344 l 0.015766,-0.015766 c 0.349481,-0.349481 -1.783422,-1.958351 -2.132903,-1.608870 l -0.262111,0.262111 M 45.834660,252.460025 l 1.565714,-1.565714 c 0.889774,-0.889774 5.006185,2.477361 4.116411,3.367134 l -0.000000,-0.000000 c -0.889774,0.889774 2.268661,1.473112 3.158434,0.583338 l 0.201986,-0.201986 c 1.159088,-1.159088 4.929159,-1.187386 3.770071,-0.028298 l -0.116484,0.116484 c -1.314399,1.314399 2.431660,1.310113 3.746059,-0.004286 l 0.100626,-0.100626 c 1.448567,-1.448567 5.518736,-1.776963 4.070169,-0.328396 l -0.068972,0.068972 c -1.540530,1.540530 2.532850,1.208923 4.073380,-0.331607 l 0.052420,-0.052420 c 1.610424,-1.610424 5.861377,-2.119604 4.250953,-0.509180 l -0.036009,0.036009 c -1.658436,1.658436 2.617174,1.124599 4.275610,-0.533837 l 0.013461,-0.013461 c 1.676383,-1.676383 6.043361,-2.301588 4.366977,-0.625204 l -0.021788,0.021788 c -1.705434,1.705434 2.684681,1.057092 4.390114,-0.648341 l 0.030468,-0.030468 c 1.746057,-1.746057 6.298565,-2.556792 4.552508,-0.810735 l -0.042480,0.042480 c -1.802697,1.802697 2.761155,0.980618 4.563853,-0.822080 l 0.071060,-0.071060 c 1.870886,-1.870886 6.698413,-2.956640 4.827526,-1.085753 l -0.169227,0.169227 c -1.870886,1.870886 2.941193,0.800580 4.812079,-1.070306 l 0.435051,-0.435051 c 1.870886,-1.870886 6.990032,-3.248259 5.119146,-1.377373 l -0.544079,0.544079 c -1.870886,1.870886 3.242664,0.499109 5.113551,-1.371778 l 0.744623,-0.744623 c 1.870886,-1.870886 7.350265,-3.608492 5.479378,-1.737605 l -0.980635,0.980635 c -1.870886,1.870886 3.518392,0.223381 5.389279,-1.647506 l 2.077255,-2.077255 c 0.644201,-0.644201 3.113806,0.627967 2.469605,1.272168 l -0.483150,0.483150"
         id="path1341" />
    </g>
    <g
       id="g1348">
      <ellipse
         style="fill:#ff0000;fill-opacity:1;stroke:#000000;stroke-width:0.264583"
         id="path2594"
         cx="151.23811"
         cy="60.29258"
         rx="6.8399148"
         ry="9.6265459"
         inkscape:label="path2594" />
      <path
         style="stroke:#000000;fill:none;stroke-width:0.264583"
         d="M 144.836230,57.477417 l 5.267352,-5.267352 c 1.870886,-1.870886 4.610056,-0.868283 2.739170,1.002603 l -6.865889,6.865889 c -1.870886,1.870886 -1.199128,4.940901 0.671758,3.070014 l 8.024343,-8.024343 c 1.870886,-1.870886 3.094287,0.647486 1.223400,2.518373 l -7.980940,7.980940 c -1.870886,1.870886 0.010059,3.731714 1.880945,1.860827 l 6.710778,-6.710778 c 1.870886,-1.870886 1.524337,2.217436 -0.346550,4.088323 l -4.924834,4.924834"
         id="path1346"
         inkscape:label="path1346" />
    </g>
  </g>
  <plotdata
     application="axidraw"
     model="1"
     layer="-2"
     node="0"
     last_path="0"
     node_after_path="0"
     last_known_x="0"
     last_known_y="0"
     paused_x="0"
     paused_y="0"
     randseed="0"
     row="0"
     id="1669845384" />
</svg>
